<?xml version="1.0" encoding="UTF-8"?>
<svg version="1.1" xmlns="http://www.w3.org/2000/svg" width="512" height="512">
<path d="M0 0 C24.09651852 23.53950962 37.0479052 55.95494902 37.56225586 89.46508789 C37.54929584 127.9692978 21.8685944 165.37751372 0.31225586 196.71508789 C-0.07784668 197.28243652 -0.46794922 197.84978516 -0.86987305 198.43432617 C-12.64128614 215.45854865 -25.85645973 231.33512685 -39.68774414 246.71508789 C-39.13425293 246.92077393 -38.58076172 247.12645996 -38.01049805 247.33837891 C-22.89040527 253.01352715 -9.16067618 258.43965788 -0.75024414 273.09008789 C1.1783595 279.67002972 1.25628995 286.36578449 -1.54321289 292.71899414 C-8.88172566 305.51756077 -23.89644889 312.81273813 -37.68774414 316.71508789 C-51.11178311 320.11964639 -64.37743788 322.80930731 -78.25415039 322.95336914 C-79.04225601 322.96320831 -79.83036163 322.97304749 -80.64234924 322.98318481 C-111.05762547 323.28457576 -147.19467933 322.3806114 -170.75024414 300.21508789 C-176.86579347 293.61206724 -178.33939614 287.90629164 -178.09399414 279.00024414 C-177.13254914 271.22548219 -173.31530776 265.29517678 -167.25415039 260.44165039 C-158.96222599 254.86321723 -147.91551466 247.71508789 -137.68774414 247.71508789 C-138.05383789 247.30000977 -138.41993164 246.88493164 -138.79711914 246.45727539 C-140.76699535 244.21536866 -142.72722912 241.96518663 -144.68774414 239.71508789 C-145.1113623 239.23233398 -145.53498047 238.74958008 -145.97143555 238.25219727 C-186.59509099 191.90012539 -217.85307361 139.12517572 -214.68774414 75.71508789 C-211.56136604 44.19712983 -194.91269576 13.75852374 -170.81274414 -6.63647461 C-119.86151764 -48.03208392 -47.56241351 -44.87149224 0 0 Z M-125.90258789 61.19946289 C-132.97449711 71.16512927 -136.96143178 82.43594301 -135.68774414 94.71508789 C-133.36320874 108.09932689 -127.97252295 119.17515329 -117.18383789 127.69165039 C-105.78941043 135.48696467 -93.46560182 138.48699112 -79.81274414 136.24243164 C-66.31419339 133.04036065 -55.7688437 125.44720808 -48.31274414 113.77758789 C-42.18938662 102.6534884 -40.8848618 90.69894227 -43.37915039 78.26977539 C-47.38852737 65.15122811 -56.11103794 54.64739562 -68.06665039 47.96899414 C-88.11324006 38.37889685 -111.8345648 44.21384158 -125.90258789 61.19946289 Z " fill="#EA7916" transform="translate(214.687744140625,189.284912109375)"/>
<path d="M0 0 C19.60310514 16.00528459 31.87698475 39.29784164 35.16943359 64.30053711 C37.31045139 92.57007831 30.46307408 117.60686421 17.16943359 142.30053711 C16.55326172 143.46069336 15.93708984 144.62084961 15.30224609 145.81616211 C6.6660458 161.51182904 -4.16182262 175.48636723 -16.07275391 188.80834961 C-16.71470703 189.52764648 -17.35666016 190.24694336 -18.01806641 190.98803711 C-18.56849609 191.5900293 -19.11892578 192.19202148 -19.68603516 192.81225586 C-21.03376981 194.25185748 -21.03376981 194.25185748 -20.83056641 196.30053711 C-19.6878125 196.72012695 -19.6878125 196.72012695 -18.52197266 197.14819336 C-8.09885648 201.19512111 0.83816023 206.66924595 6.48193359 216.61303711 C8.31983164 223.79754767 7.42784587 229.44698817 3.84130859 235.94506836 C-5.30921539 248.8370449 -23.62118793 253.44154381 -38.33056641 256.05053711 C-66.19332228 260.45703468 -99.4967155 258.86799978 -123.81884766 243.00366211 C-129.31075935 238.81710844 -132.95514753 232.94442579 -134.24072266 226.12475586 C-134.54899153 219.22221373 -131.85037749 214.30499857 -127.64306641 209.17553711 C-121.30609351 202.30938068 -113.29202024 198.95576073 -104.83056641 195.30053711 C-105.52279297 194.59413086 -106.21501953 193.88772461 -106.92822266 193.15991211 C-138.71324014 160.08385243 -162.58068274 117.81628032 -162.04150391 71.14038086 C-161.41839627 47.31997596 -151.54260794 25.14391099 -134.83056641 8.30053711 C-133.98494141 7.41366211 -133.13931641 6.52678711 -132.26806641 5.61303711 C-131.46369141 4.84991211 -130.65931641 4.08678711 -129.83056641 3.30053711 C-129.29560547 2.78233398 -128.76064453 2.26413086 -128.20947266 1.73022461 C-92.48796721 -31.39200289 -36.93294905 -29.1246109 0 0 Z M-90.51806641 53.07788086 C-97.04594503 61.05821248 -99.56145251 69.91996212 -99.22119141 80.15209961 C-97.9384646 90.49087763 -91.96223136 99.89964855 -83.83056641 106.30053711 C-74.13640852 111.71090643 -64.6392566 114.07334582 -53.76806641 111.11303711 C-43.73177147 107.77278415 -35.81049862 101.57250389 -30.95556641 92.11303711 C-27.03348097 83.86626807 -26.39185274 74.92765552 -28.66650391 66.03100586 C-32.43773377 56.17265665 -39.04942104 47.72069173 -48.83056641 43.30053711 C-64.27465413 38.10970953 -79.31223184 41.27543936 -90.51806641 53.07788086 Z " fill="#EA7916" transform="translate(476.83056640625,21.699462890625)"/>
<path d="M0 0 C23.48806974 21.43442779 38.91546106 52.63724379 40.39794922 84.578125 C42.22849068 125.96622093 26.59931498 165.84908892 3.39794922 199.578125 C3.00784668 200.14547363 2.61774414 200.71282227 2.21582031 201.29736328 C-7.27134337 215.0180257 -17.71619802 227.94987202 -28.60205078 240.578125 C-29.68486328 241.84849609 -29.68486328 241.84849609 -30.78955078 243.14453125 C-31.77955078 244.28728516 -31.77955078 244.28728516 -32.78955078 245.453125 C-33.33998047 246.08992188 -33.89041016 246.72671875 -34.45751953 247.3828125 C-36.32589188 249.29542682 -38.23229858 251.01011934 -40.25830078 252.75 C-45.06480386 256.90598639 -49.46887335 261.418336 -53.91455078 265.953125 C-60.52862617 272.63233224 -67.13681457 278.85849129 -74.60205078 284.578125 C-75.41029297 285.27679688 -76.21853516 285.97546875 -77.05126953 286.6953125 C-77.83115234 287.35789062 -78.61103516 288.02046875 -79.41455078 288.703125 C-80.08099609 289.28320312 -80.74744141 289.86328125 -81.43408203 290.4609375 C-84.57007337 292.07696187 -86.26566204 291.59133581 -89.60205078 290.578125 C-92.37548828 288.73046875 -92.37548828 288.73046875 -94.97705078 286.515625 C-95.85103516 285.78214844 -96.72501953 285.04867188 -97.62548828 284.29296875 C-98.27775391 283.72707031 -98.93001953 283.16117187 -99.60205078 282.578125 C-98.51438008 279.3151129 -97.85138365 278.69972572 -95.28955078 276.578125 C-83.04597648 266.16455113 -70.91121192 255.11002615 -60.50830078 242.8203125 C-58.96874599 241.00944272 -57.4056079 239.23175977 -55.82080078 237.4609375 C-29.59117711 207.97809038 -6.90005593 173.65920412 4.39794922 135.578125 C4.59759277 134.91828613 4.79723633 134.25844727 5.00292969 133.57861328 C15.04565339 100.00964402 11.90578405 63.63319009 -4.46875 32.64794922 C-9.94917077 22.6386844 -17.05441435 14.06492104 -24.60205078 5.578125 C-25.17310547 4.92199219 -25.74416016 4.26585937 -26.33251953 3.58984375 C-45.13388141 -16.66149462 -72.90925098 -27.2761268 -99.60205078 -31.421875 C-99.60205078 -31.751875 -99.60205078 -32.081875 -99.60205078 -32.421875 C-63.29162072 -37.72564568 -26.96341678 -23.93095693 0 0 Z " fill="#EB5517" transform="translate(211.60205078125,186.421875)"/>
<path d="M0 0 C1.39453125 1.453125 1.39453125 1.453125 2.8125 3.25 C8.05426521 9.44788118 14.13826874 14.78487254 20.11181641 20.26025391 C21.86200214 21.87285069 23.59600187 23.50064552 25.32421875 25.13671875 C34.29976945 34.67892409 34.29976945 34.67892409 45.84375 38.9765625 C49.91008965 37.71841286 52.54360714 35.43957927 55.625 32.625 C56.23690186 32.08190186 56.84880371 31.53880371 57.47924805 30.97924805 C59.32981534 29.3305957 61.16504163 27.66598233 63 26 C64.47533203 24.69095703 64.47533203 24.69095703 65.98046875 23.35546875 C74.99808708 15.25826939 83.48247384 6.61617891 92 -2 C106.69230859 1.92933834 121.63790051 7.54949143 130.72265625 20.4453125 C134.40090385 26.9821425 135.01312275 32.78826276 133.59375 40.08984375 C130.71229052 49.66311373 122.9097005 55.6563675 114.46728516 60.25512695 C96.44365728 69.64115025 75.71540186 74.02772458 55.43359375 74.23828125 C54.64548813 74.24812042 53.85738251 74.25795959 53.0453949 74.26809692 C22.63011867 74.56948787 -13.50693519 73.66552351 -37.0625 51.5 C-43.17804933 44.89697935 -44.651652 39.19120375 -44.40625 30.28515625 C-43.44462496 22.50893837 -39.62604729 16.56828869 -33.5546875 11.72265625 C-7.93880728 -5.55043729 -7.93880728 -5.55043729 0 0 Z " fill="#FEDA55" transform="translate(81,438)"/>
<path d="M0 0 C32.97962438 -0.87505892 59.4296584 4.18267681 84.41552734 27.43164062 C102.27754941 45.11201501 113.00835587 69.72268431 113.38037109 94.83984375 C113.33654703 120.11437908 106.91906381 141.85967936 95 164 C94.38382812 165.16015625 93.76765625 166.3203125 93.1328125 167.515625 C85.40858164 181.55385369 75.97210852 194.44373424 65.37158203 206.43969727 C64.4100298 207.53355278 63.45870094 208.63644025 62.51513672 209.74584961 C57.67961949 215.39161539 52.50373887 220.682421 47.24951172 225.93579102 C45.76106763 227.42641615 44.28082723 228.92487017 42.80078125 230.42382812 C36.53035253 236.73078538 29.99715948 242.4932823 23 248 C21.70400879 249.09139282 21.70400879 249.09139282 20.38183594 250.20483398 C18 252 18 252 14.8125 252.75 C8.98738406 251.60407555 5.33214856 247.90503533 1 244 C4.02632871 236.76674183 11.33426103 231.35769854 17.1875 226.375 C20.48820252 223.54206171 23.31274247 220.50756048 26.1171875 217.1875 C27.41856164 215.67553004 28.76041213 214.19780698 30.1328125 212.75 C62.83163337 178.21659182 84.37029968 135.49109345 83.17480469 87.58251953 C82.07412673 65.02477038 70.26207685 44.98884241 55 29 C54.46117187 28.38640625 53.92234375 27.7728125 53.3671875 27.140625 C44.79373307 17.74859955 32.54129353 11.84140865 21 7 C20.28457031 6.68289062 19.56914062 6.36578125 18.83203125 6.0390625 C13.84055251 3.96013733 8.78800827 3.22996354 3.44140625 2.52734375 C2.63574219 2.35332031 1.83007812 2.17929687 1 2 C0.67 1.34 0.34 0.68 0 0 Z " fill="#EB5517" transform="translate(399,0)"/>
<path d="M0 0 C1.67578125 1.50390625 1.67578125 1.50390625 3.3125 3.5625 C8.34046991 9.63885513 13.84122383 14.95442815 19.8125 20.09765625 C23.19216723 23.03675972 26.49172866 26.06388438 29.80078125 29.08203125 C32.75764393 31.66075164 34.40598613 32.93660177 38.3671875 33.359375 C42.60159193 32.94048768 43.97393503 32.03558095 47.125 29.25 C48.06730469 28.42628906 49.00960937 27.60257813 49.98046875 26.75390625 C50.98822919 25.83730998 51.99470571 24.9193004 53 24 C54.05846355 23.05063607 55.11705975 22.10142001 56.17578125 21.15234375 C60.68199909 17.07148361 65.12685042 12.97387348 69.28125 8.53125 C69.81177979 7.97155518 70.34230957 7.41186035 70.88891602 6.83520508 C71.8979206 5.76161657 72.89160973 4.67335936 73.86694336 3.5690918 C75.24609375 2.10546875 75.24609375 2.10546875 78 0 C87.77956534 0.06391873 97.24938941 7.29054456 103.99609375 13.77734375 C108.23394495 18.47780639 109.6717818 23.27906325 109.40234375 29.60546875 C108.27151559 36.33554313 105.06247126 41.52130009 99.8125 45.8125 C75.24604861 63.05353508 40.01294874 64.43429457 11.35571289 59.41503906 C-1.82527306 56.79678719 -17.94221018 52.55209525 -27 42 C-30.91914994 36.08148676 -32.92894342 31.08319359 -32 24 C-29.47577435 15.68490374 -23.66475878 9.39969072 -16.18359375 5.09765625 C-10.85796684 2.4205522 -6.01931088 0 0 0 Z " fill="#FEDA55" transform="translate(375,218)"/>
<path d="M0 0 C0.66 0 1.32 0 2 0 C2.474375 1.010625 2.94875 2.02125 3.4375 3.0625 C10.04838839 14.37597911 25.95779178 20.70671879 38 24.3125 C77.21133255 34.4286657 124.94503716 34.70477592 160.84375 14.015625 C164.86192716 11.44956137 168.01716983 8.70158443 171 5 C171.804375 4.030625 172.60875 3.06125 173.4375 2.0625 C173.953125 1.381875 174.46875 0.70125 175 0 C177.94030098 5.10745508 177.66777179 10.42312336 176.60546875 16.11328125 C173.63715527 25.66933561 165.9363955 31.64182617 157.46728516 36.25512695 C139.44365728 45.64115025 118.71540186 50.02772458 98.43359375 50.23828125 C97.64548813 50.24812042 96.85738251 50.25795959 96.0453949 50.26809692 C65.63011867 50.56948787 29.49306481 49.66552351 5.9375 27.5 C-0.43172616 20.6230819 -1.33118802 15.06847504 -1.203125 5.890625 C-1 3 -1 3 0 0 Z " fill="#FFBB25" transform="translate(38,462)"/>
<path d="M0 0 C0.639375 0.680625 1.27875 1.36125 1.9375 2.0625 C20.11739563 19.93939737 45.25191718 23.27606337 69.7578125 23.17626953 C90.1344025 22.94568486 115.93987489 20.7684041 131.2734375 5.77734375 C132.94456528 3.90475591 134.51086455 2.01872235 136 0 C138.75591774 2.75591774 139.19744595 5.29971984 139.375 9.0625 C139.2556687 15.73420448 136.6931985 21.2696905 132.015625 26.01171875 C110.02099557 43.98959848 78.05990897 44.87526947 51.08691406 42.77294922 C35.06373037 41.09362479 13.94197324 36.74712111 3 24 C-0.93885885 18.0517233 -2.82980536 13.1126174 -2 6 C-1 2.5 -1 2.5 0 0 Z " fill="#FFBC25" transform="translate(345,236)"/>
<path d="M0 0 C4.77709426 2.64577528 9.027823 5.32549251 12 10 C12.68857448 14.04537506 12.32640639 15.52059062 10 18.9375 C7 21 7 21 3.3125 21.3125 C-2.80225149 20.15723207 -7.71701172 15.28298828 -12 11 C-12.46482213 4.84110672 -12.46482213 4.84110672 -10.6875 1.625 C-7.27407382 -1.66200299 -4.29505311 -1.19307031 0 0 Z " fill="#1DA4E9" transform="translate(477,344)"/>
<path d="M0 0 C1.2890625 0.0103125 2.578125 0.020625 3.90625 0.03125 C7.6318128 0.51719297 9.60061324 1.13953271 12.5 3.5 C13.3828125 5.3671875 13.3828125 5.3671875 13.625 7.375 C13.73070312 8.03242188 13.83640625 8.68984375 13.9453125 9.3671875 C13.19297046 12.97050991 11.38943422 14.32267151 8.5 16.5 C5.61956281 17.20779354 2.89104812 17.20105703 -0.0625 17.125 C-0.81724609 17.14433594 -1.57199219 17.16367187 -2.34960938 17.18359375 C-6.26755101 17.14907444 -8.1052811 16.87244636 -10.9921875 14.1484375 C-12.86124445 10.86548255 -13.19727973 9.21882524 -12.5 5.5 C-8.68930111 0.60155908 -6.11789275 -0.14682943 0 0 Z " fill="#1DA4E9" transform="translate(399.5,334.5)"/>
<path d="M0 0 C2.72235378 1.934304 3.75092091 3.30613681 4.875 6.4375 C5.02943489 9.6034153 4.44261683 11.17399401 3 14 C-1.03479944 17.83406315 -6.15320554 22.4101143 -11.9375 22.8125 C-15 22 -15 22 -17.4375 19.875 C-19.29055839 16.46537255 -19.71588388 14.81804737 -19 11 C-16.9375 8.5 -16.9375 8.5 -14 6 C-13.45730469 5.45730469 -12.91460937 4.91460937 -12.35546875 4.35546875 C-8.36867653 0.51266902 -5.76094034 -1.08696988 0 0 Z " fill="#1DA4E9" transform="translate(489,445)"/>
<path d="M0 0 C0.75925781 -0.01998047 1.51851563 -0.03996094 2.30078125 -0.06054688 C5.88485601 -0.05740846 8.06068231 0.11849623 10.99609375 2.25 C13.23202013 5.50225655 13.10839662 7.58432141 12.5 11.4375 C9.77495512 14.99863819 8.35703483 16.30557752 3.87109375 16.99609375 C2.57300781 16.95613281 1.27492188 16.91617187 -0.0625 16.875 C-1.36316406 16.85308594 -2.66382813 16.83117187 -4.00390625 16.80859375 C-7.1317361 16.47658946 -8.92202503 16.15614998 -11.5 14.4375 C-13.5815902 11.76116974 -13.49587591 10.31996332 -13.375 6.875 C-12.5 3.4375 -12.5 3.4375 -10.9765625 1.75 C-7.39831949 -0.14635592 -3.95079214 -0.03689195 0 0 Z " fill="#1DA4E9" transform="translate(366.5,462.5625)"/>
<path d="M0 0 C1.22589844 -0.01417969 2.45179688 -0.02835937 3.71484375 -0.04296875 C6.84288908 0.17238093 8.49245155 0.47413437 11.0625 2.1875 C13.1440902 4.86383026 13.05837591 6.30503668 12.9375 9.75 C12.0625 13.1875 12.0625 13.1875 10.5390625 14.875 C6.96081949 16.77135592 3.51329214 16.66189195 -0.4375 16.625 C-1.19675781 16.64498047 -1.95601563 16.66496094 -2.73828125 16.68554688 C-6.32200806 16.68240876 -8.50148173 16.50243987 -11.44140625 14.37890625 C-13.61914749 11.1890555 -13.40915055 8.96070443 -12.9375 5.1875 C-9.90312245 -0.30327843 -5.82562025 0.03056464 0 0 Z " fill="#1DA4E9" transform="translate(286.9375,462.8125)"/>
<path d="M0 0 C1.94140625 0.33984375 1.94140625 0.33984375 4.44140625 1.83984375 C7.06048864 6.20498106 6.37964855 10.21168869 5.3984375 14.9765625 C3.34029066 22.76568176 3.34029066 22.76568176 -1.05859375 25.33984375 C-4.93899464 25.82489386 -7.13475495 25.90835993 -10.49609375 23.83984375 C-13.20664865 19.50295591 -12.52615644 15.47230873 -11.48046875 10.703125 C-9.52792658 3.58880911 -8.26738498 -0.38063467 0 0 Z " fill="#1DA4E9" transform="translate(506.05859375,410.66015625)"/>
<path d="M0 0 C1.94712891 -0.05994141 1.94712891 -0.05994141 3.93359375 -0.12109375 C8.41953483 0.56942248 9.83745512 1.87636181 12.5625 5.4375 C13.17089662 9.29067859 13.29452013 11.37274345 11.05859375 14.625 C7.52896383 17.18798636 4.25350806 16.98528969 0.0625 16.875 C-0.69675781 16.88208984 -1.45601563 16.88917969 -2.23828125 16.89648438 C-5.50982099 16.85924268 -8.00027371 16.66921614 -10.9140625 15.125 C-13.33200353 12.44666532 -13.31400751 9.95703604 -13.4375 6.4375 C-12.66842303 3.85060472 -12.05509473 2.84922982 -9.8203125 1.359375 C-6.50306946 0.07598261 -3.54875871 0.05979078 0 0 Z " fill="#1DA4E9" transform="translate(360.4375,334.5625)"/>
<path d="M0 0 C1.97806641 -0.05607422 1.97806641 -0.05607422 3.99609375 -0.11328125 C7.5625 0.3125 7.5625 0.3125 9.98046875 2.14453125 C12.00778749 4.92270878 12.41989923 6.89008143 12.5625 10.3125 C11.79331375 12.82983682 11.14632219 13.91175292 8.98046875 15.3984375 C5.53944116 16.69924599 2.19114488 16.68092637 -1.4375 16.6875 C-2.50484375 16.72423828 -2.50484375 16.72423828 -3.59375 16.76171875 C-7.0748302 16.78120241 -9.0665662 16.58322893 -11.91015625 14.5078125 C-14.12798286 11.32004126 -13.91154165 9.10483322 -13.4375 5.3125 C-10.36186844 -0.25292854 -5.80417149 0.08347322 0 0 Z " fill="#1DA3E9" transform="translate(312.4375,237.6875)"/>
<path d="M0 0 C0.80695313 -0.02384766 1.61390625 -0.04769531 2.4453125 -0.07226562 C6.61870193 -0.06193545 8.37333853 -0.00120918 11.56640625 2.87109375 C13.52167003 6.54187506 13.09775576 8.61057927 12 12.5625 C10.10466125 15.14705285 9.11173483 15.52525506 6 16.5625 C3.8783532 16.70804833 1.75143294 16.78330412 -0.375 16.8125 C-1.49648438 16.83828125 -2.61796875 16.8640625 -3.7734375 16.890625 C-7.32639283 16.52930751 -9.16250117 15.68804458 -12 13.5625 C-13.54586876 10.47076248 -13.29359521 7.96820448 -13 4.5625 C-9.65671415 -0.46587363 -5.51329835 -0.07486108 0 0 Z " fill="#1EA4E9" transform="translate(406,462.4375)"/>
<path d="M0 0 C1.12148437 -0.02578125 2.24296875 -0.0515625 3.3984375 -0.078125 C6.95139283 0.28319249 8.78750117 1.12445542 11.625 3.25 C13.17086876 6.34173752 12.91859521 8.84429552 12.625 12.25 C10.96602564 14.74513301 9.66067085 16.03962733 6.6730957 16.64648438 C4.31060937 16.82605088 1.99385104 16.84466491 -0.375 16.8125 C-1.18195313 16.83634766 -1.98890625 16.86019531 -2.8203125 16.88476562 C-6.99370193 16.87443545 -8.74833853 16.81370918 -11.94140625 13.94140625 C-13.89667003 10.27062494 -13.47275576 8.20192073 -12.375 4.25 C-9.20735769 -0.06951224 -5.02075124 0.0689348 0 0 Z " fill="#1EA4E9" transform="translate(247.375,462.75)"/>
<path d="M0 0 C4.63799377 4.25149429 6.54555721 10.10292721 7.5 16.1875 C6.78285702 20.22142924 5.28763106 21.6217137 2 24 C-1.5625 24.5625 -1.5625 24.5625 -5 24 C-10.10266476 19.87156802 -11.67700852 14.24745977 -13 8 C-12.92699983 4.97049284 -12.44242635 3.7646505 -11 1 C-7.65889782 -1.9698686 -4.08780186 -1.09494693 0 0 Z " fill="#1DA4E9" transform="translate(504,373)"/>
<path d="M0 0 C1.2890625 -0.0103125 2.578125 -0.020625 3.90625 -0.03125 C7.98582899 0.5718182 9.63002991 1.59790338 12.5 4.5 C13.96296477 7.97454134 13.61275119 9.22080658 12.1875 12.75 C10.5 15.5 10.5 15.5 8.5 16.5 C5.69309274 16.67724777 2.93369203 16.77750799 0.125 16.8125 C-0.64328125 16.84150391 -1.4115625 16.87050781 -2.203125 16.90039062 C-5.94178091 16.94243433 -7.88432519 16.93510248 -11.00390625 14.73046875 C-12.5637638 12.404937 -13.06790568 11.26770909 -13.0625 8.5 C-13.08441406 7.84 -13.10632813 7.18 -13.12890625 6.5 C-11.1952156 0.35062351 -5.60359921 -0.04482879 0 0 Z " fill="#1DA4E9" transform="translate(320.5,334.5)"/>
<path d="M0 0 C10.01170732 6.02341463 10.01170732 6.02341463 12 10 C12.26240772 13.54250417 12.4108745 16.13259827 10.875 19.375 C8.23282718 21.66488311 6.48146393 21.931736 3 22 C-2.38578518 20.12668341 -7.48817791 16.51519983 -11 12 C-11.88300323 8.79778348 -11.85092986 6.20538242 -11 3 C-8.08665621 -0.84561381 -4.52562905 -0.7901892 0 0 Z " fill="#1DA4E9" transform="translate(283,322)"/>
<path d="M0 0 C1.2890625 -0.0103125 2.578125 -0.020625 3.90625 -0.03125 C7.98582899 0.5718182 9.63002991 1.59790338 12.5 4.5 C13.96296477 7.97454134 13.61275119 9.22080658 12.1875 12.75 C10.5 15.5 10.5 15.5 8.5 16.5 C5.69309274 16.67724777 2.93369203 16.77750799 0.125 16.8125 C-0.64328125 16.84150391 -1.4115625 16.87050781 -2.203125 16.90039062 C-5.94178091 16.94243433 -7.88432519 16.93510248 -11.00390625 14.73046875 C-12.5637638 12.404937 -13.06790568 11.26770909 -13.0625 8.5 C-13.08441406 7.84 -13.10632813 7.18 -13.12890625 6.5 C-11.1952156 0.35062351 -5.60359921 -0.04482879 0 0 Z " fill="#1DA4E9" transform="translate(439.5,334.5)"/>
<path d="M0 0 C2.4375 1.5625 2.4375 1.5625 4 4 C4.48123704 8.26021426 4.38847391 10.3749247 2.1015625 14.0546875 C1.28429687 14.98539062 0.46703125 15.91609375 -0.375 16.875 C-1.18710937 17.82117188 -1.99921875 18.76734375 -2.8359375 19.7421875 C-5.60052026 22.62653558 -6.36252729 22.94097475 -10.375 23.3125 C-14 23 -14 23 -16.4375 21.4375 C-18.68144979 17.93693832 -18.68412591 16.10475544 -18 12 C-13.9268558 4.76035832 -8.87201603 -1.29047506 0 0 Z " fill="#1DA4E8" transform="translate(284,251)"/>
<path d="M0 0 C0.70705078 -0.01546875 1.41410156 -0.0309375 2.14257812 -0.046875 C5.57371476 -0.0211012 7.59338675 0.25092755 10.3984375 2.28125 C12.01050039 4.60523914 12.50545459 5.70725072 12.5 8.5 C12.52191406 9.16 12.54382813 9.82 12.56640625 10.5 C11.54317917 13.75398922 9.82184448 14.76939331 6.9375 16.5 C4.08386573 16.89400433 1.71030519 17.06237152 -1.125 17 C-1.83205078 17.01546875 -2.53910156 17.0309375 -3.26757812 17.046875 C-6.69871476 17.0211012 -8.71838675 16.74907245 -11.5234375 14.71875 C-13.13550039 12.39476086 -13.63045459 11.29274928 -13.625 8.5 C-13.64691406 7.84 -13.66882813 7.18 -13.69140625 6.5 C-11.69949106 0.16546224 -5.70748054 -0.12555411 0 0 Z " fill="#1DA4E9" transform="translate(327.0625,462.5)"/>
<path d="M0 0 C1.51980469 -0.05607422 1.51980469 -0.05607422 3.0703125 -0.11328125 C6.62402335 0.42620967 7.74415794 1.46306015 9.875 4.3125 C10.44140625 6.3125 10.44140625 6.3125 10.4375 8.3125 C10.45941406 8.9725 10.48132813 9.6325 10.50390625 10.3125 C9.47354127 13.58918865 7.79516907 14.58470166 4.875 16.3125 C1.9802616 16.84945934 -0.81415293 16.82765466 -3.75 16.75 C-4.513125 16.75708984 -5.27625 16.76417969 -6.0625 16.77148438 C-9.10870283 16.73674697 -11.49808122 16.70309979 -14.125 15.06640625 C-15.38798258 12.85125322 -15.52544238 11.35673792 -15.5 8.8125 C-15.50773437 8.0390625 -15.51546875 7.265625 -15.5234375 6.46875 C-15.03328082 3.81613736 -14.23462586 2.9465747 -12.125 1.3125 C-8.16670116 0.19605674 -4.09431494 0.14960956 0 0 Z " fill="#1DA4E9" transform="translate(448.125,461.6875)"/>
<path d="M0 0 C2.58455285 1.89533875 2.96275506 2.88826517 4 6 C4.19893471 8.49805159 4.32225834 10.93706596 4.375 13.4375 C4.42398437 14.75621094 4.47296875 16.07492187 4.5234375 17.43359375 C4 21 4 21 1.703125 23.4765625 C-1.97339855 25.54859167 -3.99483502 25.11254583 -8 24 C-10.58455285 22.10466125 -10.96275506 21.11173483 -12 18 C-12.19893471 15.50194841 -12.32225834 13.06293404 -12.375 10.5625 C-12.42398437 9.24378906 -12.47296875 7.92507813 -12.5234375 6.56640625 C-12 3 -12 3 -9.703125 0.5234375 C-6.02660145 -1.54859167 -4.00516498 -1.11254583 0 0 Z " fill="#1EA4E8" transform="translate(269,287)"/>
</svg>
