<?xml version="1.0" encoding="UTF-8"?>
<svg version="1.1" xmlns="http://www.w3.org/2000/svg" width="512" height="512">
<path d="M0 0 C0.97088562 0.00215515 1.94177124 0.0043103 2.94207764 0.00653076 C17.28306653 0.05759152 31.27727486 0.46144879 45.375 3.3125 C46.37450684 3.50585938 47.37401367 3.69921875 48.40380859 3.8984375 C88.86352377 11.89535543 125.99305571 28.83700303 158.375 54.3125 C159.33664062 55.06015625 160.29828125 55.8078125 161.2890625 56.578125 C190.0040763 79.44848997 212.37148335 107.89329002 229.375 140.3125 C229.94516846 141.38564453 229.94516846 141.38564453 230.52685547 142.48046875 C241.70909846 163.78737166 249.03686123 187.69973223 253.375 211.3125 C253.53581055 212.11848633 253.69662109 212.92447266 253.86230469 213.75488281 C259.59748344 243.3058348 258.55963976 276.94570062 252.375 306.3125 C252.19839844 307.20582031 252.02179688 308.09914063 251.83984375 309.01953125 C242.87955424 353.82097879 221.84732563 396.32486932 191.79052734 430.69213867 C190.78002065 431.84887081 189.77581614 433.01112093 188.77587891 434.17700195 C178.68945123 445.8708913 167.6782195 456.957986 155.375 466.3125 C154.20001566 467.23894299 153.02557379 468.16607424 151.8515625 469.09375 C128.51337492 487.31203725 91.1508162 512.3125 60.375 512.3125 C60.36691315 511.02227432 60.35882629 509.73204865 60.35049438 508.40272522 C60.27264325 496.17882026 60.18480937 483.95502129 60.08747292 471.73125553 C60.03775791 465.44854455 59.99142782 459.16584839 59.953125 452.88305664 C59.91595633 446.80752416 59.86951548 440.73212382 59.81693649 434.65670586 C59.79855882 432.35138734 59.78339122 430.04604068 59.77165604 427.74067879 C59.64571245 403.83076714 59.08192795 382.96871404 43.16015625 363.62109375 C41.375 361.3125 41.375 361.3125 41.375 359.3125 C42.06980469 359.16554688 42.76460938 359.01859375 43.48046875 358.8671875 C78.96554881 351.04158049 112.39498622 338.61586146 133.62109375 307.1953125 C149.33795925 281.36224627 156.22977219 251.20116037 149.41162109 221.3203125 C145.46647615 206.11848261 138.57304065 192.35882343 129.36547852 179.67822266 C126.20874203 175.04140289 124.92563969 172.23642119 125.9375 166.60546875 C126.39055286 164.83426036 126.86721776 163.06880101 127.375 161.3125 C130.39950361 145.44712143 129.22883399 130.93066932 125.375 115.3125 C124.69677656 112.31503271 124.03406076 109.31423367 123.375 106.3125 C102.5983022 108.70717977 84.54219737 116.15439299 66.95703125 127.4765625 C65.93996094 128.12367188 64.92289062 128.77078125 63.875 129.4375 C63.0190625 130.01757812 62.163125 130.59765625 61.28125 131.1953125 C54.6478623 133.74524379 46.78820458 130.83893328 40.0625 129.375 C11.3812927 123.43354743 -18.52245757 123.52355315 -46.93164062 131.12988281 C-53.65898107 132.85967586 -58.29646694 132.21307242 -64.3046875 128.87109375 C-66.04174493 127.83958022 -67.77329611 126.79875277 -69.5 125.75 C-86.9519424 115.48172142 -102.38456602 108.8240867 -122.625 106.3125 C-122.893125 107.529375 -123.16125 108.74625 -123.4375 110 C-124.06287741 112.83653327 -124.70984478 115.66443267 -125.390625 118.48828125 C-128.97400465 133.43659538 -130.63059294 149.19473985 -125.6953125 164.125 C-124.75783906 167.124915 -124.34092036 169.16642398 -124.625 172.3125 C-127.10117874 177.0146331 -130.16273565 181.14611191 -133.30175781 185.42041016 C-149.71864632 208.89474336 -153.22079874 241.86037902 -148.5 269.5 C-143.31724088 295.69008242 -127.91066305 319.77369111 -105.72387695 334.70825195 C-87.38289384 346.68741804 -67.67176272 353.52052604 -46.23828125 357.5859375 C-42.625 358.3125 -42.625 358.3125 -40.625 359.3125 C-42.00343085 363.26400177 -43.8533215 366.09907199 -46.4375 369.375 C-52.52901199 377.58914411 -55.79110788 386.30945206 -57.625 396.3125 C-66.90860874 399.98225593 -78.07236011 401.5591911 -87.5625 397.75 C-89.66015625 396.60546875 -89.66015625 396.60546875 -91.625 395.3125 C-92.26308594 394.89613281 -92.90117187 394.47976563 -93.55859375 394.05078125 C-99.12409982 389.78426654 -102.63749505 384.11414634 -106.49438477 378.3659668 C-114.93473673 365.83244329 -127.14065563 352.94827178 -142.76953125 349.89331055 C-145.03171801 349.58142818 -147.28890076 349.33735846 -149.5625 349.125 C-150.73135742 349.0022168 -150.73135742 349.0022168 -151.92382812 348.87695312 C-153.82320797 348.67885829 -155.72398762 348.49426159 -157.625 348.3125 C-157.480625 349.41207031 -157.33625 350.51164062 -157.1875 351.64453125 C-156.13828775 359.90450616 -155.3005511 367.96695339 -155.625 376.3125 C-154.9959375 376.38726562 -154.366875 376.46203125 -153.71875 376.5390625 C-142.67338497 378.23579026 -136.34539404 384.73549904 -129.625 393.3125 C-127.5259042 396.35420863 -125.50000677 399.43748968 -123.47265625 402.52734375 C-114.74558369 415.68252924 -101.37877546 423.79202444 -86 427.08984375 C-76.68172444 428.57494392 -69.52894677 427.97276312 -59.625 427.3125 C-59.625 455.3625 -59.625 483.4125 -59.625 512.3125 C-68.64490938 511.18501133 -68.64490938 511.18501133 -72.3671875 509.96484375 C-73.19605469 509.69381836 -74.02492187 509.42279297 -74.87890625 509.14355469 C-76.17634766 508.70124512 -76.17634766 508.70124512 -77.5 508.25 C-78.41910156 507.93836914 -79.33820313 507.62673828 -80.28515625 507.30566406 C-107.72658861 497.79578837 -133.07389277 483.55126237 -155.625 465.3125 C-156.15883301 464.88308105 -156.69266602 464.45366211 -157.24267578 464.01123047 C-171.97606033 452.0565684 -186.26071128 438.54501777 -197.625 423.3125 C-198.04652344 422.75675293 -198.46804687 422.20100586 -198.90234375 421.62841797 C-229.45810965 381.3021646 -247.53788718 336.40254372 -254.625 286.3125 C-254.88978149 284.71535156 -254.88978149 284.71535156 -255.15991211 283.0859375 C-255.71675262 278.56807556 -255.80525856 274.14116206 -255.828125 269.59375 C-255.83518463 268.66685867 -255.84224426 267.73996735 -255.84951782 266.7849884 C-256.07607993 228.27405771 -256.07607993 228.27405771 -252.625 211.3125 C-252.43164062 210.31444336 -252.23828125 209.31638672 -252.0390625 208.28808594 C-244.0429794 167.82642469 -227.10163161 130.69588654 -201.625 98.3125 C-200.87734375 97.35085937 -200.1296875 96.38921875 -199.359375 95.3984375 C-176.47805059 66.66966352 -148.03971235 44.34948953 -115.625 27.3125 C-114.92552246 26.93770508 -114.22604492 26.56291016 -113.50537109 26.17675781 C-90.56902675 14.019154 -64.25815482 6.04092254 -38.625 2.3125 C-36.77575928 2.03974243 -36.77575928 2.03974243 -34.88916016 1.76147461 C-23.26361259 0.16175888 -11.72146231 -0.04689688 0 0 Z " fill="#000000" transform="translate(255.625,-0.3125)"/>
</svg>
